<svg
	width="100%"
	height="100%"
	viewBox="0 0 701 250"
	version="1.1"
	xmlns="http://www.w3.org/2000/svg"
	xmlns:xlink="http://www.w3.org/1999/xlink"
	xml:space="preserve"
	xmlns:serif="http://www.serif.com/"
	style="fill-rule: evenodd; clip-rule: evenodd; stroke-linejoin: round; stroke-miterlimit: 2"
	class="h-[60px] w-[168px]"
>
	<rect id="c3_dark" x="0.393" y="0" width="700" height="250" style="fill: none" />
	<g id="Ebene-1" serif:id="Ebene 1">
		<path
			d="M239.89,104.953l-43.736,0c-0.176,-4.496 -0.475,-7.68 -0.86,-9.29c-0.384,-1.608 -1.172,-2.939 -2.361,-3.988c-1.678,-1.47 -5.912,-2.535 -12.699,-3.201c-6.787,-0.664 -17.073,-0.998 -30.856,-0.998c-13.644,0 -23.09,0.299 -28.338,0.893c-5.246,0.596 -8.957,1.768 -11.125,3.516c-2.588,2.099 -4.39,5.632 -5.404,10.6c-1.016,4.969 -1.521,12.874 -1.521,23.719c0,10.847 0.453,18.49 1.363,22.933c0.91,4.444 2.658,7.644 5.248,9.602c2.449,1.89 6.35,3.15 11.703,3.778c5.352,0.63 14.815,0.946 28.389,0.946c16.722,0 26.865,-0.28 32.427,-0.84c5.563,-0.56 9.323,-1.784 11.284,-3.674c2.588,-2.448 3.951,-8.149 4.05,-15.254l42.436,0l0,11.737c0,11.056 -0.164,20.18 -3.246,25.873c-3.756,6.934 -9.742,11.754 -20.307,14.273c-10.564,2.519 -28.826,3.778 -54.785,3.778c-27.287,0 -46.721,-0.524 -58.301,-1.574c-11.58,-1.05 -20.308,-3.078 -26.185,-6.088c-5.248,-2.728 -9.166,-6.401 -11.754,-11.019c-2.59,-4.618 -4.27,-10.95 -5.039,-18.996c-0.629,-6.508 -0.944,-18.262 -0.944,-35.265c0,-16.582 0.315,-28.547 0.944,-35.894c0.631,-7.346 1.853,-13.047 3.674,-17.107c3.988,-9.095 12.07,-14.989 24.244,-17.685c12.174,-2.692 36.521,-3.576 73.465,-3.576c18.47,0 32.117,0.955 40.513,1.795c8.397,0.84 15.078,2.414 20.047,4.723c6.506,3.08 11.088,7.645 13.748,13.697c2.658,6.053 3.637,10.635 3.926,22.473c0.016,0.63 0,6.115 0,10.113"
			style="fill: currentColor; fill-rule: nonzero"
		/>
		<path
			d="M422.277,182.973c-4.758,6.438 -12.92,10.805 -25.305,12.868c-12.384,2.063 -34.72,3.096 -69.004,3.096c-12.664,0 -22.179,-0.263 -28.546,-0.787c-6.368,-0.525 -12.456,-1.557 -18.262,-3.096c-12.805,-3.428 -20.151,-11.299 -22.039,-23.614c-0.91,-5.808 -0.84,-18.175 -0.84,-27.744l40.928,0c0.033,0.981 0.047,4.187 0.047,4.607c0.068,5.668 0.744,9.476 1.687,11.539c0.945,2.065 2.852,3.447 5.721,4.146c2.519,0.56 14.623,0.98 36.312,1.259c18.121,-0.42 26.846,-0.769 30.168,-1.049c3.324,-0.279 5.895,-0.98 7.715,-2.099c2.797,-1.749 4.197,-5.038 4.197,-9.866c0,-6.017 -2.064,-9.619 -6.191,-10.81c-3.289,-0.979 -11.609,-1.47 -28.961,-1.47l-25.293,0l0,-30.855l33.059,0c10.775,0 17.912,-0.805 21.412,-2.414c3.496,-1.609 5.246,-4.897 5.246,-9.865c0,-5.248 -1.821,-8.536 -5.457,-9.867c-3.569,-1.258 -15.114,-1.889 -34.635,-1.889c-16.162,0 -26.729,0.228 -31.695,0.682c-4.969,0.457 -8.256,1.454 -9.866,2.992c-1.191,1.12 -1.906,2.308 -2.152,3.568c-0.246,1.26 -0.471,5.074 -0.682,12.648l-41.56,0l0.006,-9.816c0,-13.503 2.197,-23.018 6.816,-28.545c2.938,-3.568 6.77,-6.297 11.492,-8.186c4.723,-1.89 11.178,-3.288 19.364,-4.199c12.523,-1.398 30.365,-2.099 53.525,-2.099c20.15,0 34.688,0.525 43.607,1.574c8.922,1.051 15.655,3.01 20.204,5.878c4.828,3.009 8.255,7.032 10.287,12.069c2.027,5.038 3.043,11.93 3.043,20.676c0,10.147 -1.645,17.44 -4.934,21.883c-3.289,4.443 -9.41,7.574 -18.365,9.393c8.254,1.889 11.715,3.401 14.722,5.499c3.219,2.241 5.883,6.137 7.319,10.508c1.433,4.374 1.986,10.302 1.986,17.997c0,11.755 -1.297,20.14 -5.076,25.388"
			style="fill: currentColor; fill-rule: nonzero"
		/>
		<path
			d="M571.303,58.073c-0.667,1.908 -1.968,4.154 -3.796,6.584c-1.845,2.451 -4.203,5.055 -6.94,7.636c-2.723,2.567 -5.781,5.076 -9.021,7.351c-0.348,0.243 -0.692,0.481 -1.036,0.714c-0.342,0.234 -0.683,0.46 -1.02,0.681c-0.338,0.221 -0.673,0.434 -1.007,0.645c-0.331,0.21 -0.661,0.413 -0.988,0.613c-0.176,0.117 -0.354,0.235 -0.531,0.353c-0.177,0.119 -0.352,0.238 -0.528,0.36c-0.176,0.119 -0.352,0.241 -0.528,0.362c-0.175,0.122 -0.349,0.244 -0.524,0.366c-3.374,2.371 -6.682,5.011 -9.774,7.755c-3.066,2.72 -5.96,5.575 -8.533,8.415c-2.58,2.849 -4.872,5.717 -6.712,8.452c-1.87,2.776 -3.299,5.454 -4.105,7.865c-0.834,2.499 -1.234,4.761 -1.172,6.714c0.066,2.024 0.628,3.725 1.72,5.003c1.139,1.333 2.858,2.212 5.198,2.522c2.444,0.322 5.568,0.021 9.408,-1.041c3.17,-1.273 6.28,-2.049 9.221,-2.33c3.059,-0.291 5.963,-0.048 8.568,0.746c2.729,0.833 5.144,2.272 7.057,4.343c2.013,2.178 3.471,5.052 4.144,8.631c0.82,4.364 0.482,9.311 -0.906,14.511c-1.444,5.412 -3.993,10.986 -7.447,16.316c-3.512,5.422 -7.874,10.454 -12.793,14.671c-4.874,4.18 -10.163,7.446 -15.533,9.439c-5.18,1.921 -9.835,2.434 -13.773,1.787c-3.744,-0.616 -6.799,-2.276 -9.064,-4.739c-2.143,-2.331 -3.571,-5.377 -4.226,-8.951c-0.62,-3.388 -0.546,-7.265 0.278,-11.503c0.369,-1.885 0.861,-3.773 1.461,-5.643c0.589,-1.838 1.287,-3.664 2.077,-5.465c0.776,-1.774 1.646,-3.527 2.597,-5.243c0.94,-1.697 1.96,-3.362 3.05,-4.982c2.196,-3.993 3.616,-7.535 4.387,-10.597c0.742,-2.959 0.874,-5.451 0.523,-7.483c-0.336,-1.951 -1.115,-3.47 -2.222,-4.579c-1.066,-1.063 -2.433,-1.746 -4.005,-2.066c-1.007,-0.205 -2.163,-0.232 -3.435,-0.08c-1.242,0.146 -2.597,0.463 -4.037,0.946c-1.41,0.472 -2.904,1.107 -4.46,1.901c-1.531,0.781 -3.123,1.723 -4.762,2.825c-1.091,0.73 -2.204,1.537 -3.334,2.419c-1.123,0.874 -2.268,1.824 -3.428,2.854c-1.155,1.026 -2.33,2.131 -3.521,3.321c-1.189,1.192 -2.398,2.467 -3.623,3.838c-0.001,0.002 -0.004,0.003 -0.005,0.006c-0.002,0.002 -0.01,0.01 -0.01,0.01c0,0.001 -0.001,0.002 -0.004,0.003c-0.792,0.876 -1.601,1.727 -2.417,2.542c-0.816,0.814 -1.637,1.593 -2.457,2.323c-0.819,0.729 -1.634,1.411 -2.438,2.034c-0.801,0.623 -1.587,1.189 -2.355,1.686c-0.227,0.148 -0.45,0.29 -0.669,0.423c-0.219,0.132 -0.433,0.257 -0.643,0.376c-0.21,0.118 -0.414,0.227 -0.614,0.33c-0.198,0.103 -0.394,0.199 -0.584,0.287c-1.43,0.667 -2.593,0.927 -3.469,0.824c-0.856,-0.102 -1.434,-0.552 -1.726,-1.31c-0.286,-0.74 -0.297,-1.77 -0.026,-3.057c0.268,-1.256 0.804,-2.758 1.619,-4.475c0.798,-1.68 1.804,-3.438 2.949,-5.198c1.127,-1.734 2.398,-3.484 3.751,-5.182c1.341,-1.683 2.773,-3.327 4.243,-4.864c1.468,-1.535 2.981,-2.975 4.487,-4.254c0.198,-0.168 0.397,-0.334 0.596,-0.498c0.198,-0.163 0.398,-0.323 0.596,-0.48c0.199,-0.159 0.398,-0.314 0.596,-0.464c0.198,-0.152 0.398,-0.301 0.595,-0.446c1.272,-0.933 2.441,-1.665 3.488,-2.196c1.065,-0.54 2.006,-0.878 2.81,-1.013c0.819,-0.139 1.495,-0.069 2.005,0.211c0.519,0.287 0.867,0.791 1.017,1.518c0.473,0.95 1.201,1.612 2.158,1.989c0.985,0.389 2.209,0.474 3.633,0.263c1.463,-0.218 3.131,-0.747 4.955,-1.573c1.868,-0.847 3.887,-1.997 6.003,-3.431c0.583,-0.396 1.171,-0.811 1.767,-1.249c0.597,-0.436 1.198,-0.895 1.803,-1.374c0.607,-0.478 1.216,-0.977 1.829,-1.494c0.613,-0.52 1.228,-1.056 1.842,-1.611c2.999,-2.706 5.856,-5.585 8.45,-8.488c2.585,-2.892 4.877,-5.772 6.764,-8.497c1.861,-2.682 3.309,-5.186 4.257,-7.38c0.926,-2.139 1.367,-3.966 1.254,-5.369c-0.023,-0.088 -0.045,-0.179 -0.062,-0.272c-0.019,-0.093 -0.032,-0.189 -0.043,-0.287c-0.01,-0.097 -0.018,-0.199 -0.023,-0.302c-0.003,-0.102 -0.004,-0.208 -0.002,-0.317c0.014,-0.607 0.132,-1.272 0.343,-1.982c0.21,-0.702 0.51,-1.449 0.894,-2.233c0.379,-0.776 0.841,-1.587 1.375,-2.427c0.528,-0.832 1.131,-1.692 1.798,-2.569c0.785,-1.035 1.661,-2.095 2.616,-3.168c0.953,-1.071 1.987,-2.156 3.089,-3.24c1.104,-1.085 2.283,-2.174 3.521,-3.252c1.241,-1.078 2.549,-2.146 3.912,-3.192l0.033,-0.025c1.377,-1.055 2.743,-2.035 4.088,-2.934c1.365,-0.913 2.709,-1.748 4.015,-2.493c1.325,-0.757 2.612,-1.424 3.846,-1.994c1.253,-0.58 2.451,-1.062 3.575,-1.435c0.963,-0.319 1.871,-0.559 2.711,-0.712c0.853,-0.155 1.634,-0.222 2.332,-0.194c0.708,0.03 1.327,0.158 1.841,0.393c0.524,0.24 0.939,0.587 1.229,1.053c0.65,1.04 0.611,2.559 -0.043,4.423"
			style="fill: #3197c7; fill-rule: nonzero"
		/>
		<path
			d="M641.343,198.864l-31.285,0l0,-4.132l27.617,0l0,-24.474l3.668,0l0,28.606Z"
			style="fill: currentColor; fill-rule: nonzero"
		/>
		<path
			d="M631.075,158.476l-17.35,-9.785l0,-1.657l17.35,-9.649l0,21.091Zm10.268,-26.744l0,-4.586l-31.286,17.526l0,6.607l31.286,17.572l0,-4.676l-6.602,-3.701l0,-25.064l6.602,-3.678Z"
			style="fill: currentColor; fill-rule: nonzero"
		/>
		<path
			d="M641.148,79.571c-0.207,1.627 -0.584,2.917 -1.135,3.871c-0.656,1.15 -1.492,1.945 -2.51,2.384c-1.015,0.439 -2.531,0.658 -4.548,0.658c-0.092,0 -0.559,-0.008 -1.399,-0.022l0,-4.019c0.352,0 0.582,-0.008 0.688,-0.023c1.758,-0.03 2.933,-0.155 3.529,-0.373c0.596,-0.221 1.055,-0.702 1.375,-1.443c0.506,-1.15 0.758,-4.911 0.758,-11.284c0,-4.615 -0.231,-7.93 -0.688,-9.943c-0.443,-1.983 -1.994,-2.975 -4.654,-2.975c-1.344,0 -2.355,0.16 -3.035,0.478c-0.68,0.317 -1.158,0.862 -1.434,1.634c-0.275,0.772 -0.435,1.855 -0.48,3.246c-0.047,1.393 -0.069,5.912 -0.069,13.554c0,2.574 -0.242,4.632 -0.722,6.176c-0.481,1.543 -1.25,2.731 -2.303,3.564c-1.254,0.984 -3.156,1.475 -5.707,1.475c-2.826,0 -4.875,-0.778 -6.143,-2.338c-0.627,-0.756 -1.099,-1.597 -1.421,-2.519c-0.321,-0.924 -0.581,-2.218 -0.78,-3.883c-0.336,-2.739 -0.504,-5.994 -0.504,-9.762c0,-3.496 0.18,-6.199 0.539,-8.105c0.36,-1.908 0.975,-3.391 1.846,-4.45c0.717,-0.879 1.559,-1.479 2.52,-1.805c0.963,-0.325 2.445,-0.503 4.447,-0.534l0,4.132l-0.481,0c-1.529,0 -2.552,0.167 -3.072,0.5c-0.808,0.485 -1.39,1.539 -1.742,3.166c-0.352,1.628 -0.527,4.053 -0.527,7.278c0,4.01 0.154,7.018 0.459,9.023c0.306,2.006 0.81,3.365 1.513,4.076c0.672,0.666 1.787,0.998 3.346,0.998c1.406,0 2.406,-0.166 3.002,-0.499c0.596,-0.333 1.047,-0.983 1.352,-1.952c0.459,-1.408 0.703,-4.117 0.734,-8.128c0.016,-1.362 0.031,-4.729 0.045,-10.102c0.015,-2.226 0.23,-3.932 0.642,-5.119c0.413,-1.19 1.123,-2.162 2.131,-2.918c1.283,-0.939 3.117,-1.409 5.5,-1.409c2.278,0 4.073,0.387 5.387,1.159c1.527,0.923 2.553,2.637 3.07,5.142c0.52,2.505 0.78,7.004 0.78,13.497c0,3.436 -0.102,5.968 -0.309,7.594"
			style="fill: currentColor; fill-rule: nonzero"
		/>
		<path
			d="M637.675,121.175l-10.52,0l0,-16.437c0.061,-4.193 0.139,-6.694 0.229,-7.503c0.092,-0.81 0.367,-1.525 0.826,-2.146c0.641,-0.893 2.031,-1.339 4.172,-1.339c2.002,0 3.338,0.401 4.01,1.203c0.504,0.62 0.844,1.596 1.019,2.929c0.176,1.331 0.264,3.617 0.264,6.856l0,16.437Zm-14.186,0l-9.763,0l0,-16.437c0.076,-3.648 0.16,-5.857 0.252,-6.629c0.092,-0.773 0.336,-1.415 0.732,-1.93c0.627,-0.802 1.926,-1.204 3.897,-1.204c2.062,0 3.429,0.584 4.103,1.749c0.32,0.559 0.531,1.347 0.629,2.36c0.1,1.015 0.15,2.9 0.15,5.654l0,16.437Zm17.647,-22.931c-0.152,-1.998 -0.389,-3.499 -0.711,-4.506c-0.32,-1.005 -0.824,-1.842 -1.512,-2.508c-1.191,-1.136 -3.345,-1.703 -6.463,-1.703c-2.461,0 -4.259,0.382 -5.398,1.147c-1.137,0.764 -1.859,2.069 -2.166,3.916c-0.518,-1.437 -1.275,-2.437 -2.268,-2.997c-0.994,-0.56 -2.506,-0.841 -4.539,-0.841c-1.847,0 -3.299,0.289 -4.353,0.863c-2.063,1.122 -3.217,3.149 -3.461,6.084c-0.076,0.94 -0.145,3.286 -0.207,7.039l0,20.569l31.285,0l0,-20.569c0,-2.619 -0.068,-4.783 -0.207,-6.494"
			style="fill: currentColor; fill-rule: nonzero"
		/>
	</g>
</svg>
